PathFileType	3	(X/Y/Z)	D:\Jess\PFP\Labelled\PA02\20250516\SRRun01.trc
DataRate	CameraRate	NumFrames	NumMarkers	Units	OrigDataRate	OrigDataStartFrame	OrigNumFrames
250.0	250.0	4	37	mm	250.0	36875	2501
Frame#	Time	C7			T10			CLAV			LSHO			RSHO			LASIS			RASIS			LPSIS			RPSIS			LILCR			RILCR			LGTR			LTHI			LLTHI			LLEP			LMEP			LPSH			LLSH			LDSH			LLMAL			LMMAL			LTOE			L5TH			LHEE			RGTR			RTHI			RLTHI			RLEP			RMEP			RPSH			RLSH			RDSH			RLMAL			RMMAL			RTOE			R5TH			RHEE			
		X1	Y1	Z1	X2	Y2	Z2	X3	Y3	Z3	X4	Y4	Z4	X5	Y5	Z5	X6	Y6	Z6	X7	Y7	Z7	X8	Y8	Z8	X9	Y9	Z9	X10	Y10	Z10	X11	Y11	Z11	X12	Y12	Z12	X13	Y13	Z13	X14	Y14	Z14	X15	Y15	Z15	X16	Y16	Z16	X17	Y17	Z17	X18	Y18	Z18	X19	Y19	Z19	X20	Y20	Z20	X21	Y21	Z21	X22	Y22	Z22	X23	Y23	Z23	X24	Y24	Z24	X25	Y25	Z25	X26	Y26	Z26	X27	Y27	Z27	X28	Y28	Z28	X29	Y29	Z29	X30	Y30	Z30	X31	Y31	Z31	X32	Y32	Z32	X33	Y33	Z33	X34	Y34	Z34	X35	Y35	Z35	X36	Y36	Z36	X37	Y37	Z37	

1876	147.496	792.4117017525514	1483.556503136502	-342.556311280955	710.3264769704371	1224.161118187958	-360.2501004697986	923.0317269080263	1393.641747294872	-283.4371039264809	919.314652726412	1430.294020439126	-469.3994449229075	801.5606584228734	1440.818073008392	-147.3267946110489	909.8489696333528	958.3326676370377	-447.0985191008879	890.2184908470997	952.8646407716268	-214.3152900661688	694.6764556165093	1042.9213187144	-362.1580280257483	682.4586003981104	1042.418929671117	-313.4855209021298	866.1210713100079	1054.383665873202	-485.556825077472	805.1341813573347	1028.210605470855	-135.9768230480101	827.8079941233522	854.4073703248382	-522.2169477840098	869.2927560001897	678.0145784752206	-430.252095221578	726.873816820783	600.4165324795443	-487.1600735502259	687.2440141726137	500.4578108540184	-464.4074388577116	nan	nan	nan	628.7720670946271	390.9598120130227	-412.5325496004227	485.7191250446962	427.2030583748978	-454.9094097014025	444.2003720178947	333.9137116768592	-399.8778350264753	316.7679758524642	357.9689081100442	-424.5906647233144	nan	nan	nan	270.6832668270064	205.1620048166473	-396.1157141471596	227.9826157413771	240.6320890488232	-427.1137539527426	306.0555912910297	416.2468428167317	-367.1866264432291	795.8910462411815	856.0752785389467	-114.1333891938644	966.8408473457956	762.8813178536055	-216.1987987637199	888.7133519974674	626.1849368249091	-167.2861914649368	944.5065636425481	504.785657681588	-200.8824163987859	nan	nan	nan	983.1129931914446	401.9559367981294	-266.6383370930831	911.526728129038	297.4326298028692	-210.9714131200684	947.5239805906423	198.8867461557325	-295.3544048573298	879.0628718813269	104.4853125280301	-268.9841177014621	nan	nan	nan	1013.92170333292	66.51787519957408	-276.3321103757316	985.0871823843657	47.89209043177473	-240.9516295566339	810.7870810772266	85.5845444935678	-337.7537425405441	
1877	147.5	791.9055864692434	1481.235885929523	-342.1201508220317	709.5245934723674	1221.041973245174	-358.9388547853331	923.262784703008	1390.792197214277	-283.5988216867314	918.5765749930463	1427.055149917362	-470.4280260416894	802.0579384078775	1437.798160293137	-146.055770465266	909.4408477499758	954.9425522352573	-446.4698053603158	889.744903695279	949.6876004487227	-212.6649766479972	693.2350275411446	1037.428616076276	-362.1500192079536	680.9379997090581	1037.20672235657	-313.3467490722339	865.1002089838337	1050.137458405364	-486.1345071794331	804.2704973746835	1023.181513907331	-134.5055894836942	829.7823401901162	850.2536537671924	-521.9551915199713	871.696238741149	675.9661335184458	-430.0567286419656	730.8398171531944	596.5267825700495	-487.5030630234658	692.7146632919257	497.1428503887796	-465.5615331339156	nan	nan	nan	633.9566067817161	388.4448007373234	-413.8329460406841	491.2152843462363	426.6824266285434	-456.375935734591	448.3930503297586	334.5008591769013	-401.2043788133197	321.4540567409282	360.8288161335884	-425.9068679380865	nan	nan	nan	273.614474630422	208.5359125550617	-398.5776988562371	231.3844063676956	244.721050660394	-429.4338582953364	311.4262504967488	419.0436132572783	-368.1247572816557	794.9758421759891	852.3348667489062	-113.425938931779	967.107620214477	761.0796333937388	-214.3267166006206	887.1399174130129	623.538010272542	-167.449824538072	943.0251885245131	502.5196579313294	-200.7081054593508	nan	nan	nan	980.9864975389789	399.8252879434542	-267.4723083267983	907.6168422889883	296.6941898542814	-211.7760214748107	940.8816429723709	197.651769093039	-296.9510990533965	869.9637680981306	105.1572584103067	-270.4907631429103	nan	nan	nan	1004.159410220504	65.96281086633361	-277.3273475215801	975.0132855471392	48.28482036900912	-241.5267128742193	801.1707184803435	86.14471711679809	-338.847372536659	
1878	147.504	791.4822282602022	1479.111191235054	-341.6821225813215	708.6651044718732	1218.094185786674	-357.6246964862476	923.5413636714285	1387.982359894359	-283.8141846041104	917.8336792921449	1423.907292955314	-471.4399147760699	802.6299911126956	1434.848974746689	-144.7932700061996	908.9144544817358	951.4138780449392	-445.8676156696857	889.218902735321	946.5066190828982	-210.9054509535983	691.6782780077067	1031.975491685626	-362.2328771751718	679.3588848836517	1032.114551434151	-313.2762427104412	863.9715193945747	1045.701259870725	-486.7643894994919	803.1849214986311	1018.303069529925	-133.027096045203	831.7463227627198	846.2585624171595	-521.7415320869153	874.1061940804927	674.134452671787	-429.948690584263	734.7934476089022	592.9301255496947	-487.8196579322852	698.2785387212457	494.0549472913537	-466.6627689833013	nan	nan	nan	639.4004576438484	386.0351028120537	-415.1398940249431	496.9739896858188	426.0885988841227	-457.8820213074881	452.9593912232967	334.9736227289449	-402.5278938671086	326.5201271523487	363.3925925539231	-427.2338456905194	nan	nan	nan	277.223857436992	211.543132106814	-401.0887079779767	235.4424085813021	248.3512115315438	-431.8591547386329	316.9910193535138	421.520836777131	-369.0912385240404	794.0193959997065	848.9161528585436	-112.6071946870287	967.1326485889273	759.3028440639334	-212.4231251395728	885.3008817077491	621.0702624134623	-167.5170637041754	941.373931020186	500.5112839751323	-200.4194674858988	nan	nan	nan	978.6801151450616	397.9241029056353	-268.1916920599799	903.5306473447569	296.1503506674899	-212.3859975327029	934.1106478830574	196.5854240653112	-298.2670411046946	860.8176934008019	105.8829446514509	-271.7774346054715	nan	nan	nan	994.3520980928131	65.54835673720058	-278.1503874052794	964.9445323244551	48.68671407956145	-242.017851359864	791.532036871675	86.7795330681008	-339.7555991717297	
1879	147.508	791.149281228611	1477.195564576135	-341.2366715447209	707.7506919061201	1215.348588093641	-356.3094752564322	923.8637073823987	1385.224044445291	-284.0882290590274	917.0824351397158	1420.872174903058	-472.4194745943212	803.2925015681037	1431.988376099433	-143.5560868758547	908.2671577467025	947.7541258599042	-445.3065945376936	888.639814181117	943.3322126369651	-209.0559698323933	690.0323306816136	1026.642996136001	-362.4113987650369	677.7500135929295	1027.21861945282	-313.2813564259183	862.7361018433252	1041.109896134512	-487.4354447568998	801.8820118323113	1013.638773299716	-131.5641022997748	833.6711669206142	842.470073338444	-521.5735962561653	876.5317426316703	672.5321548273143	-429.915001540446	738.7397094920448	589.6297956961041	-488.1087730784055	703.9445893740449	491.1931018158572	-467.7008609535147	nan	nan	nan	645.106984205482	383.7340477315647	-416.44198845201	502.9948590919362	425.4256720120871	-459.4174240650264	457.8921607746258	335.3240761037105	-403.8388616655014	331.949364580719	365.6419984193731	-428.5729511222207	nan	nan	nan	281.5016807094738	214.1574542378589	-403.6286198565594	240.1444922626774	251.488995551358	-434.3794667526712	322.7181564309776	423.6702059763561	-370.0998575667273	793.0209012707875	845.8507744105033	-111.6858656676384	966.9071468094212	757.5466294153251	-210.5078086467988	883.2219840473185	618.7829798419298	-167.4814912196607	939.5609398036686	498.7526986807558	-200.0146654270165	nan	nan	nan	976.1733049178146	396.2285248962878	-268.7556062925364	899.2364138759947	295.761750268203	-212.7914843582858	927.2052607854708	195.6585668534765	-299.2894990213164	851.6250719131083	106.633551008372	-272.8331433602042	nan	nan	nan	984.5110401916786	65.24426143182792	-278.7978621106851	954.8853271847024	49.07185241602763	-242.4159476090893	781.8766922980111	87.47116977081647	-340.4806807448527	
